<svg id="Capa_1" enable-background="new 0 0 512 512" height="512" viewBox="0 0 512 512" width="512" xmlns="http://www.w3.org/2000/svg"><g><path d="m504.5 327c-4.142 0-7.5 3.358-7.5 7.5v67.5c0 1.378-1.122 2.5-2.5 2.5h-477c-1.378 0-2.5-1.122-2.5-2.5v-86c0-4.142-3.358-7.5-7.5-7.5s-7.5 3.358-7.5 7.5v86c0 9.649 7.851 17.5 17.5 17.5h477c9.649 0 17.5-7.851 17.5-17.5v-67.5c0-4.142-3.358-7.5-7.5-7.5z"/><path d="m494.5 197.5c9.649 0 17.5-7.851 17.5-17.5v-70c0-9.649-7.851-17.5-17.5-17.5h-345c-4.142 0-7.5 3.358-7.5 7.5s3.358 7.5 7.5 7.5h345c1.378 0 2.5 1.122 2.5 2.5v70c0 1.378-1.122 2.5-2.5 2.5h-8.5v-17.5c0-6.893-5.607-12.5-12.5-12.5h-435c-6.893 0-12.5 5.607-12.5 12.5v17.5h-8.5c-1.378 0-2.5-1.122-2.5-2.5v-70c0-1.378 1.122-2.5 2.5-2.5h97c4.142 0 7.5-3.358 7.5-7.5s-3.358-7.5-7.5-7.5h-97c-9.649 0-17.5 7.851-17.5 17.5v70c0 9.649 7.851 17.5 17.5 17.5h8.5v7.5c0 1.378-1.122 2.5-2.5 2.5h-6c-9.649 0-17.5 7.851-17.5 17.5v56c0 4.142 3.358 7.5 7.5 7.5s7.5-3.358 7.5-7.5v-56c0-1.378 1.122-2.5 2.5-2.5h6c9.649 0 17.5-7.851 17.5-17.5v-37.5h430v37.5c0 9.649 7.851 17.5 17.5 17.5h6c1.378 0 2.5 1.122 2.5 2.5v74.5c0 4.142 3.358 7.5 7.5 7.5s7.5-3.358 7.5-7.5v-74.5c0-9.649-7.851-17.5-17.5-17.5h-6c-1.378 0-2.5-1.122-2.5-2.5v-7.5z"/><path d="m331 137.5c4.142 0 7.5-3.358 7.5-7.5s-3.358-7.5-7.5-7.5h-60c-4.142 0-7.5 3.358-7.5 7.5s3.358 7.5 7.5 7.5z"/><path d="m241 137.5c4.142 0 7.5-3.358 7.5-7.5s-3.358-7.5-7.5-7.5h-60c-4.142 0-7.5 3.358-7.5 7.5s3.358 7.5 7.5 7.5z"/><path d="m288.319 207.5h-210.631c-9.913 0-19.094 5.365-23.959 14.002-11.068 19.645-16.919 41.949-16.919 64.498s5.851 44.853 16.918 64.498c4.866 8.637 14.046 14.002 23.959 14.002h356.624c9.913 0 19.094-5.365 23.959-14.002 11.068-19.646 16.919-41.949 16.919-64.498s-5.851-44.853-16.918-64.498c-4.866-8.637-14.046-14.002-23.959-14.002h-110.993c-4.142 0-7.5 3.358-7.5 7.5s3.358 7.5 7.5 7.5h31.181v127h-197v-127h130.819c4.142 0 7.5-3.358 7.5-7.5s-3.358-7.5-7.5-7.5zm-145.819 99.71c-8.729-3.096-15-11.432-15-21.21s6.271-18.114 15-21.21zm0-57.955c-17.096 3.484-30 18.635-30 36.745s12.904 33.261 30 36.745v26.297c-31.49-3.724-56-30.567-56-63.042s24.51-59.318 56-63.042zm-64.812 100.245c-4.506 0-8.679-2.438-10.891-6.364-19.855-35.243-19.855-79.029 0-114.271 2.211-3.926 6.384-6.364 10.89-6.364h26.239c-19.63 14.282-32.426 37.418-32.426 63.499s12.796 49.217 32.427 63.5zm291.812-84.71c8.729 3.096 15 11.432 15 21.21s-6.271 18.114-15 21.21zm0 57.955c17.096-3.484 30-18.635 30-36.745s-12.904-33.261-30-36.745v-26.297c31.49 3.724 56 30.567 56 63.042s-24.51 59.318-56 63.042zm64.812-100.245c4.506 0 8.679 2.438 10.891 6.364 19.855 35.243 19.855 79.029 0 114.271-2.211 3.926-6.384 6.364-10.89 6.364h-26.239c19.631-14.283 32.427-37.419 32.427-63.5s-12.796-49.217-32.427-63.5h26.238z"/><path d="m173 245v82c0 4.142 3.358 7.5 7.5 7.5h151c4.142 0 7.5-3.358 7.5-7.5v-82c0-4.142-3.358-7.5-7.5-7.5h-151c-4.142 0-7.5 3.358-7.5 7.5zm15 7.5h136v67h-136z"/><path d="m301.5 265h-42.373c-4.142 0-7.5 3.358-7.5 7.5s3.358 7.5 7.5 7.5h42.373c4.142 0 7.5-3.358 7.5-7.5s-3.358-7.5-7.5-7.5z"/><path d="m210.5 280h18.627c4.142 0 7.5-3.358 7.5-7.5s-3.358-7.5-7.5-7.5h-18.627c-4.142 0-7.5 3.358-7.5 7.5s3.358 7.5 7.5 7.5z"/><path d="m301.5 292h-91c-4.142 0-7.5 3.358-7.5 7.5s3.358 7.5 7.5 7.5h91c4.142 0 7.5-3.358 7.5-7.5s-3.358-7.5-7.5-7.5z"/></g></svg>