<svg height="464pt" viewBox="0 -4 464 464" width="464pt" xmlns="http://www.w3.org/2000/svg"><path d="m259.015625 384.992188 21.785156 14.542968c4.488281 2.957032 7.191407 7.96875 7.199219 13.34375v43.121094h16v-43.121094c.003906-10.714844-5.351562-20.71875-14.273438-26.65625l-21.839843-14.550781c-11.996094-7.992187-15.472657-24.066406-7.855469-36.304687 2.589844-4.214844 6.316406-7.617188 10.753906-9.816407l1.214844-.605469v19.054688h16v-104c0-4.417969 3.582031-8 8-8 2.15625-.003906 4.222656.878906 5.703125 2.449219 1.484375 1.464843 2.3125 3.464843 2.296875 5.550781v72h16v-88c0-4.417969 3.582031-8 8-8 2.15625-.003906 4.222656.878906 5.703125 2.449219 1.484375 1.464843 2.3125 3.464843 2.296875 5.550781v72h16v-56c0-4.417969 3.582031-8 8-8 2.15625-.003906 4.222656.878906 5.703125 2.449219 1.484375 1.464843 2.3125 3.464843 2.296875 5.550781v72h16v-48c-.003906-2.15625.882812-4.214844 2.449219-5.695312 1.457031-1.492188 3.464843-2.324219 5.550781-2.304688 4.417969 0 8 3.582031 8 8v68.238281c0 16.710938-2.917969 33.296875-8.625 49-1.867188 5.171875-4.042969 10.226563-6.511719 15.136719-.566406 1.125-.863281 2.367188-.863281 3.625v56h16v-54.121094c10.523438-21.691406 15.996094-45.488281 16-69.597656v-68.28125c.058594-7.808594-3.714844-15.148438-10.097656-19.648438-6.386719-4.5-14.566406-5.582031-21.902344-2.902343v-1.449219c-.066406-13.226562-10.773438-23.933594-24-24-3.054688.007812-6.082031.605469-8.910156 1.761719-1.027344-4.027344-3.128906-7.699219-6.082032-10.625-4.464843-4.59375-10.605468-7.167969-17.007812-7.136719-10.808594.042969-20.253906 7.308594-23.070312 17.742188-2.835938-1.148438-5.867188-1.742188-8.929688-1.742188-13.253906 0-24 10.746094-24 24v67.054688l-8.375 4.183593c-13.621094 6.808594-22.589844 20.351563-23.539062 35.550781-.949219 15.199219 6.261718 29.753907 18.929687 38.203126zm0 0"/><path d="m224.039062 368v-16h-.128906c-52.511718.050781-100.347656-30.1875-122.832031-77.648438-22.484375-47.457031-15.582031-103.625 17.722656-144.230468l17.199219 17.191406v28.6875h-16v16h16v16h-8c-4.417969 0-8 3.582031-8 8v40c0 4.417969 3.582031 8 8 8h32c4.417969 0 8-3.582031 8-8v-40c0-4.417969-3.582031-8-8-8h-8v-16h16v-16h-16v-32c0-2.121094-.84375-4.15625-2.34375-5.65625l-20-20c37.199219-36.128906 91.730469-47.914062 140.527344-30.367188 48.800781 17.546876 83.339844 61.359376 89.015625 112.902344l15.90625-1.757812c-9.242188-78.847656-77.292969-137.503906-156.640625-135.015625-37.53125 1.390625-73.199219 16.699219-100.066406 42.941406l-22.398438-22.359375v-44.6875c0-4.417969-3.582031-8-8-8h-48c-4.417969 0-8 3.582031-8 8v48c0 4.417969 3.582031 8 8 8h44.6875l22.785156 22.785156c-37.898437 45.199219-46.167968 108.265625-21.203125 161.707032 24.964844 53.441406 78.640625 87.570312 137.625 87.507812zm-72.039062-120h-16v-24h16zm-72-168h-32v-32h32zm0 0"/><path d="m256 216c0-17.671875-14.328125-32-32-32s-32 14.328125-32 32 14.328125 32 32 32 32-14.328125 32-32zm-32 16c-8.835938 0-16-7.164062-16-16s7.164062-16 16-16 16 7.164062 16 16-7.164062 16-16 16zm0 0"/><path d="m432 0h-400c-17.671875 0-32 14.328125-32 32v368c0 17.671875 14.328125 32 32 32h240v-16h-240c-8.835938 0-16-7.164062-16-16v-368c0-8.835938 7.164062-16 16-16h400c8.835938 0 16 7.164062 16 16v368c0 8.835938-7.164062 16-16 16h-16v16h16c17.671875 0 32-14.328125 32-32v-368c0-17.671875-14.328125-32-32-32zm0 0"/><path d="m392 32c-19.082031 0-35.507812 13.480469-39.230469 32.199219-3.722656 18.714843 6.292969 37.453125 23.925781 44.757812 17.628907 7.300781 37.964844 1.132813 48.566407-14.738281 10.597656-15.867188 8.515625-37.015625-4.980469-50.507812-7.484375-7.523438-17.667969-11.742188-28.28125-11.710938zm16.96875 56.976562c-9.5 9.054688-24.4375 9.054688-33.9375 0-7.136719-7.195312-8.984375-18.101562-4.617188-27.25l10.273438 10.273438 11.3125-11.3125-10.289062-10.289062c10.535156-5.058594 23.183593-1.773438 29.929687 7.773437 6.742187 9.542969 5.613281 22.5625-2.671875 30.804687zm0 0"/><path d="m416 120h16v16h-16zm0 0"/><path d="m416 152h16v16h-16zm0 0"/><path d="m416 184h16v16h-16zm0 0"/><path d="m64 400v-32h16v-16h-16v-16h-16v16h-16v16h16v32zm0 0"/><path d="m88 384h16v16h-16zm0 0"/><path d="m120 384h16v16h-16zm0 0"/></svg>